<?xml version="1.0" encoding="utf-8"?>
<!-- Generator: Adobe Illustrator 25.2.3, SVG Export Plug-In . SVG Version: 6.00 Build 0)  -->
<svg version="1.1" id="Layer_1" xmlns="http://www.w3.org/2000/svg" xmlns:xlink="http://www.w3.org/1999/xlink" x="0px" y="0px"
	 viewBox="0 0 616.4 273.4" style="enable-background:new 0 0 616.4 273.4;" xml:space="preserve">
<style type="text/css">
	.st0{fill:#DED6CC;}
</style>
<g>
	<path class="st0" d="M156,273.4c-1.5-1.8-3.8-2-5.7-2.8c-9.3-4-17.4-9.7-24.6-16.8c-6.7-6.5-13.3-13.1-20.1-19.5
		c-12.6-11.8-27.2-19.1-44.9-19c-0.4-2.2,1-3.6,1.9-5.1c4.9-9,9.9-18.1,15.1-27c5.3-9.2,12.1-17.1,21-23.1c1.7-1.1,2.9-2.4,3.6-4.5
		c2.8-8.7,7.8-16.1,13.9-22.8c6.4-7,12.6-14.2,18.9-21.3c4-4.5,6-4.2,8,1.6c1.4,3.8,2,7.7,2,11.8c0,5.5,0,10.9,0,16.8
		c7.2-7.1,14.7-14.1,21.7-23.5c3.4,12.4,1.4,22.7-2.4,33c-5.4-1-10.4-3.1-17.2-2.6c9.6,4.2,17.5,8.6,24.9,13.9
		c2.6,1.9,4.2,3.8,3.9,7.3c-0.4,4.7,2.6,7.2,6.8,8.6c10.9,3.7,21.4,8.3,30.9,14.9c1.2,0.8,2.4,1.7,3.8,2.7
		c-3.3,10.8-8.6,18.7-20.9,20.6c-11.4,1.7-22.6,4.1-34.1,4.9c-3.2,0.2-5.3,1.5-7,4c-9.6,14.2-8,28.5-0.8,43c0.8,1.6,1.6,3.2,2.4,4.9
		C156.7,273.4,156.3,273.4,156,273.4z"/>
	<path class="st0" d="M452,0.4c2.4,0.3,7,0.8,12,3.3c2.1,1.1,7.7,4,11.4,9.9c2.4,3.9,3.6,8.6,3.6,14c0,16.2,0,32.3,0,48.5
		c0,7.7,0.2,7.9,8,8.9c1.8,0.2,3.6,0.3,5.6,0.5c1.1,2,0.2,3.8,0.3,6.3c-19-0.7-37.6-1.1-56,0c-1.2-2.2-0.8-4-0.6-5.7
		c0.3-0.2,0.5-0.6,0.8-0.6c11.7-1.8,11.8-1.8,12-13.6c0.2-14,0.4-28,0.1-42c-0.3-13.6-9.7-19.9-22.8-15.6c-9.2,3-16.8,12-17.1,21.4
		c-0.3,13.6-0.6,27.3,0.3,41c0.5,7,1.3,7.8,8.3,8.6c1.5,0.2,3,0.3,4.4,0.4c1,1.9,0.4,3.6,0.1,5.8c-18.6,0-37.1,0-55.7,0
		c-0.7-1.8-0.6-3.6-0.1-5.3c0.4-0.2,0.6-0.5,0.9-0.5c11.1-1.2,11.2-1.2,11.8-12.5c0.9-14.6,0.7-29.3,0.3-44
		c-0.3-12.9-8.4-18.5-20.9-15c-11.6,3.2-19.1,13-19.2,24.9c0,12.3,0.1,24.7,0.2,37c0.1,7.8,0.9,8.5,8.9,9.3c1.3,0.1,2.6,0.3,3.9,0.4
		c0.2,2.1-0.4,3.8-1.3,6.1c-18.3-0.5-36.7-1.1-55,0.1c-1.3-2.3-0.7-4.2-0.3-6c0.3-0.1,0.4-0.3,0.6-0.3c11.6-0.9,13.1,1.1,13.2-15.3
		c0.1-16,0.1-32,0-48c0-10.9-0.4-11.2-11.1-11.7c-0.8,0-1.7-0.1-2.5-0.2c-1.1-1.8-0.2-3.6-0.1-5.9c13.8-0.3,27.5-1,41.3-2.9
		c2.4,5,1.2,10.5,2.8,15.8c4.3-3.7,8.2-6.3,11-8c1.4-0.9,13.1-7.8,24.6-9c1.5-0.2,4.3-0.5,8,0c0.7,0.1,3.1,0.4,6.3,1.4
		c2.4,0.8,6.3,1.8,9.6,4.4c3.8,2.9,6.6,7,8.5,12.3c5-4.6,12-9.9,20.9-13.9c7.5-3.3,12.5-4,14.7-4.2C447.9,0,450.9,0.2,452,0.4z"/>
	<path class="st0" d="M96,0.4c1.2,0.2,2.6,0.5,2.6,0.5c1.4,0.3,2.7,0.7,3.6,0.9c3.2,0.7,8.2,2.3,13.2,6
		c12.6,9.3,14.9,24.3,15.4,29.5c0.7,7,0.3,14-1.3,20.8c-4.7,20.4-19.8,33-42.5,35.2c-15.2,1.5-19,1-37.9-5.3c0,13.6-0.5,27,0.9,40.4
		c0.4,3.8,2.6,5.9,6.6,6.2s7.9,0.7,11.9,1.1c0.8,2.1-0.4,3.7-0.7,5.9c-22.6-0.4-45.2-1-67.7,0.8c0-0.7,0-1.3,0-2
		c0.6-4.1,3.6-4.7,7.1-4.9c9.5-0.6,11.1-2.2,11.6-11.7c1.5-29.5,0.8-58.9,0.9-88.4c0-5.3-0.2-10.7-0.4-16c-0.4-7.3-1.8-8.7-9-8.9
		c-2-0.1-3.9,0-5.8,0c-0.5-2.4,0-4.1,1.1-6c14.3-0.1,28.6-1.3,43.2-3.1c0.4,5.8,0.8,11.2,1.2,17.1c3.4-2.6,6.3-4.8,9.2-6.9
		c8.3-6.2,18-8.9,27.9-11.1C88.2,0.2,92.5-0.2,96,0.4z M49.6,53.2L49.6,53.2c0.1,5.2,0,10.3,0.1,15.5c0.1,2.3,0.2,4.6,1.7,6.7
		c5.7,8,13.4,11.7,23.2,11c9.4-0.6,16-5.5,19.8-13.8c6.6-14.2,7.1-29,2.4-43.8C94.3,21,89.5,15,80.6,13.6
		c-15.4-2.5-30.4,9.6-31,25.1C49.4,43.5,49.6,48.4,49.6,53.2z"/>
	<path class="st0" d="M564.4,1.4c0.2,0,0.5,0.1,0.7,0.1c17.8,3.1,31.2,9.7,29.6,32.6c-1,13.6-0.1,27.3,0,40.9c0,2.7,0.3,5.6,3.6,6.4
		c3.1,0.7,5-1.3,6.6-3.5c2.4-3.2,3.4-7.1,4.8-10.9c2.3,0.8,4.3,1.5,6.3,2.3c0.2,0.5,0.3,0.6,0.4,1.1c-1.9,3.8-3.3,7.9-5.5,11.6
		c-6.9,11.6-25.2,15.8-36.7,8.8c-4.7-2.9-7-7.4-8.7-13c-2.2,1.8-4.2,3.5-6.3,5c-12.6,9.6-26.5,13.9-42.2,9.4
		c-13.1-3.7-20.7-16.8-17.6-30c1.6-6.8,5.6-11.6,12.3-13.8c15-4.9,30.1-9.6,45.1-14.7c4.6-1.5,10.1-2.1,9.2-9.7
		c-1-8.3-4.3-14.1-11.1-16.1c-14.8-4.4-25.4,4.1-24.3,19.4c0.5,6.5-0.3,7.7-6.5,9.4c-2,0.6-4.1,0.9-6.2,0.9c-4.9,0-9.7-0.5-12.2-5.5
		c-2.8-5.4-1-10.5,2.5-14.9c6.1-7.6,14.3-11.4,23.3-13.9c2.7-0.8,5.4-1.3,8.2-1.7c3.6-0.6,6.5-0.9,8.6-1.1c1.5-0.2,2.6-0.2,4-0.3
		c2,0,3.6,0.1,4.8,0.2C559.5,0.8,562,1.1,564.4,1.4z M566.3,36.7c-10,4.4-19.1,8.1-27.9,12.4c-8,4-10.7,14.5-6.5,23.4
		c3.4,7.2,11.3,10.3,19.5,7.2c7.2-2.7,11.8-8.1,13.6-15.5C567,55.6,565.9,46.6,566.3,36.7z"/>
	<path class="st0" d="M212,0.4c0.8,0.2,8.9,2,12.2,9.8c0.5,1.2,1.7,5.3,0.8,10.5c-1.1,5.7-5.6,10.3-11.2,11.3c-5.3,1-9-1.1-10.9-6.2
		c-3-8-9.7-9.3-15.2-2.9c-4.7,5.5-7.3,12-7.4,19.2c-0.2,11.2-0.1,22.3,0.1,33.5c0.1,6.5,1.7,8.1,8.3,8.8c3.8,0.4,7.6,0.8,11.4,1.2
		c0.1,0,0.3,0.2,0.5,0.3c0.2,1.8-0.2,3.5-1,5.7c-21.2-0.7-42.4-1-64,0.1c-0.7-4.2-0.3-6.5,4.6-6.8c9.2-0.5,9.6-1.4,10-10.5
		c0.8-17.2,0.9-34.3-0.1-51.5c0-0.7,0-1.3-0.1-2c-0.6-8.8-0.6-8.8-9.5-9.4c-1.3-0.1-2.6-0.3-4.1-0.4c0-1.9,0-3.5,0-5.7
		c13.2-1,26.7-1.1,40.4-4.7c1.9,7.5,1.9,14.7,2.3,21.9c0.8,0.4,1.4,0.1,1.7-0.5c5-10.7,12.5-18.7,24.3-21.8
		C206.6,0,209.1-0.3,212,0.4z"/>
	<path class="st0" d="M276,0.4c-1.9,24.5-0.9,48.9-0.8,73.4c0,9.9,0.4,9.9,13.5,11.9c1.1,1.7,0.6,3.5,0.3,6.1
		c-19.5-0.7-39-1.2-58.3,0c-1.1-2.5-0.6-4.2-0.5-6.2c3.4-0.4,6.5-0.7,9.6-1.2c3.4-0.6,5.2-2.6,5.3-6.2c0.6-20.5,0.6-41,0.1-61.5
		c-0.1-4-1.9-5.8-5.8-5.8c-2.5,0-4.9,0-7.3,0c-0.7-2.4-0.2-4.1,0.2-6.1C242.6,4,253,3.3,263.4,2.3c3.6-0.4,7.3-0.1,10.6-1.9
		C274.7,0.4,275.3,0.4,276,0.4z"/>
	<path class="st0" d="M307,198c-0.5-48.3,27.3-76.2,70.1-73c16.9,1.2,32.1,6.7,43.3,19.9c17.1,20.4,19.6,43.8,10.4,68
		c-8.8,22.9-27.1,34.1-51,36.7c-13.2,1.5-26.1,0.1-38.1-5.4C317.5,233.1,307.4,213,307,198z M371.1,225.5
		c21.9,0.1,36.8-15.1,37-37.7c0.1-22.8-14.7-38.4-36.7-38.5c-22,0-37.2,15.6-37,38.2C334.4,210.1,349.3,225.4,371.1,225.5z"/>
	<path class="st0" d="M557.8,176.6c0,20.1,0,39.8,0.1,59.4c0,2.9-2,3.5-3.9,4.5c-15.4,7.6-31.9,10.2-49,9.9
		c-9.9-0.1-19.5-2.3-28.5-6.7c-22.7-11-35.3-34.6-32.9-61.6c3-33.6,23.9-54.2,57.7-56.9c13.1-1,26-0.2,38.3,4.7
		c5.8,2.3,10.9,5.6,16,10.2c-6.3,6.7-12.5,13.3-18.5,19.7c-1.5,0.3-2-0.8-2.7-1.4c-14.5-12.7-38-12.8-51.8-0.2
		c-13.6,12.5-16.1,37.1-5.1,52.2c9.1,12.6,26,18,43,13.6c11.8-3,11.8-3,11.8-15.2c0-2.3,0-4.7,0-7.7c-7.1,0-14,0-21.1,0
		c0-8.6,0-16.5,0-24.7C526.7,176.6,541.9,176.6,557.8,176.6z"/>
	<path class="st0" d="M189.3,247.3c0-5.9,0-11,0-16.6c3.7-0.7,7.4-1.4,11.1-2.2c2.6-0.6,5.5-0.7,7.7-2.1c7.5-4.9,15.8-4,24.1-4
		c3.3,0,6.7-0.2,9.9-0.8c20-3.8,30.9-17.6,29.8-37.4c-1-17.5-14.6-30.5-33.8-31.8c-7.1-0.5-14.3-0.1-22.1-0.1c0,8.9,0,17.8,0,27.5
		c-8.2-4.4-15.8-8.1-23.6-11.2c-2-0.8-3.2-2.7-3.2-4.8c-0.1-11.9-0.1-23.9-0.1-36.4c14.4,0,28.3,0,42.3,0c7.7,0,15.3,0.9,22.8,2.7
		c34.8,8.5,48.3,34.3,44.3,66.2c-3.6,28.7-23,46.3-52.7,49.9C227.2,248.6,208.5,246.4,189.3,247.3z"/>
</g>
</svg>
